<?xml version="1.0" ?><svg enable-background="new 0 0 52 52" id="Layer_1" version="1.1" viewBox="0 0 52 52" xml:space="preserve" xmlns="http://www.w3.org/2000/svg" xmlns:xlink="http://www.w3.org/1999/xlink"><g><g><g><path d="M9.9986572,9.9996338v32h32v-32H9.9986572z M39.9986572,39.9996338h-28v-28h28V39.9996338z" fill="#0096E6"/></g></g><g><g><path d="M32.9986572,16.4996338h-14c-1.6499634,0-3,1.3500366-3,3v14c0,1.6500244,1.3500366,3,3,3h14     c1.6600342,0,3-1.3499756,3-3v-14C35.9986572,17.8496704,34.6586914,16.4996338,32.9986572,16.4996338z M33.9986572,33.4996338     c0,0.5499878-0.4500122,1-1,1h-14c-0.5499878,0-1-0.4500122-1-1v-14c0-0.5499878,0.4500122-1,1-1h14c0.5499878,0,1,0.4500122,1,1     V33.4996338z" fill="#0096E6"/></g><g><path d="M33.9986572,19.4996338v14c0,0.5499878-0.4500122,1-1,1h-14c-0.5499878,0-1-0.4500122-1-1v-14     c0-0.5499878,0.4500122-1,1-1h14C33.548645,18.4996338,33.9986572,18.949646,33.9986572,19.4996338z" fill="#D0E8F9"/></g></g><g><g><g><g><rect fill="#0096E6" height="2" width="7" x="42" y="12.5"/></g></g><g><g><rect fill="#0096E6" height="2" width="7" x="42" y="17.5"/></g></g><g><g><rect fill="#0096E6" height="2" width="7" x="42" y="22.5"/></g></g><g><g><rect fill="#0096E6" height="2" width="7" x="42" y="27.5"/></g></g><g><g><rect fill="#0096E6" height="2" width="7" x="42" y="32.5"/></g></g><g><g><rect fill="#0096E6" height="2" width="7" x="42" y="37.5"/></g></g></g><g><g><g><rect fill="#0096E6" height="2" width="7" x="3" y="12.5"/></g></g><g><g><rect fill="#0096E6" height="2" width="7" x="3" y="17.5"/></g></g><g><g><rect fill="#0096E6" height="2" width="7" x="3" y="22.5"/></g></g><g><g><rect fill="#0096E6" height="2" width="7" x="3" y="27.5"/></g></g><g><g><rect fill="#0096E6" height="2" width="7" x="3" y="32.5"/></g></g><g><g><rect fill="#0096E6" height="2" width="7" x="3" y="37.5"/></g></g></g></g><g><g><g><g><rect fill="#0096E6" height="7" width="2" x="37.5" y="3"/></g></g><g><g><rect fill="#0096E6" height="7" width="2" x="32.5" y="3"/></g></g><g><g><rect fill="#0096E6" height="7" width="2" x="27.5" y="3"/></g></g><g><g><rect fill="#0096E6" height="7" width="2" x="22.5" y="3"/></g></g><g><g><rect fill="#0096E6" height="7" width="2" x="17.5" y="3"/></g></g><g><g><rect fill="#0096E6" height="7" width="2" x="12.5" y="3"/></g></g></g><g><g><g><rect fill="#0096E6" height="7" width="2" x="37.5" y="42"/></g></g><g><g><rect fill="#0096E6" height="7" width="2" x="32.5" y="42"/></g></g><g><g><rect fill="#0096E6" height="7" width="2" x="27.5" y="42"/></g></g><g><g><rect fill="#0096E6" height="7" width="2" x="22.5" y="42"/></g></g><g><g><rect fill="#0096E6" height="7" width="2" x="17.5" y="42"/></g></g><g><g><rect fill="#0096E6" height="7" width="2" x="12.5" y="42"/></g></g></g></g><g><g><rect fill="#0096E6" height="2.0229192" transform="matrix(0.7069861 -0.7072275 0.7072275 0.7069861 -6.0951171 14.718812)" width="1.9997864" x="13.7154388" y="13.7036285"/></g></g><g><g><rect fill="#0096E6" height="2.0218835" transform="matrix(0.7071068 -0.7071068 0.7071068 0.7071068 -15.4440174 37.2851563)" width="1.9997864" x="36.2852631" y="36.2742157"/></g></g></g></svg>