<?xml version="1.0" encoding="utf-8"?>
<!-- Generator: Adobe Illustrator 20.0.0, SVG Export Plug-In . SVG Version: 6.00 Build 0)  -->
<!DOCTYPE svg PUBLIC "-//W3C//DTD SVG 1.1//EN" "http://www.w3.org/Graphics/SVG/1.1/DTD/svg11.dtd">
<svg version="1.1" id="Layer_1" xmlns="http://www.w3.org/2000/svg" xmlns:xlink="http://www.w3.org/1999/xlink" x="0px" y="0px"
	 width="214px" height="174px" viewBox="0 0 214 174" style="enable-background:new 0 0 214 174;" xml:space="preserve">
<style type="text/css">
	.st0{fill:#8ED8F8;}
	.st1{fill:#FFFFFF;}
	.st2{fill:#B1B3B6;}
	.st3{clip-path:url(#SVGID_2_);fill:#FFFFFF;}
</style>
<rect x="77.9" y="7.1" class="st0" width="57.5" height="161.2"/>
<rect x="84.1" y="30.5" class="st1" width="45.1" height="3.8"/>
<rect x="84.1" y="45.3" class="st1" width="45.1" height="3.8"/>
<rect x="84.1" y="60.1" class="st1" width="45.1" height="3.8"/>
<rect x="84.1" y="74.8" class="st1" width="45.1" height="3.8"/>
<rect x="84.1" y="89.6" class="st1" width="45.1" height="3.8"/>
<rect x="84.1" y="104.4" class="st1" width="45.1" height="3.8"/>
<rect x="84.1" y="119.1" class="st1" width="45.1" height="3.8"/>
<rect x="84.1" y="133.9" class="st1" width="45.1" height="3.8"/>
<polygon class="st2" points="140.1,31.3 140.1,34.3 140.1,146.7 140.1,149.7 168.7,167.3 168.7,135.7 168.7,45.4 168.7,20.2 "/>
<polygon class="st2" points="170.8,45.4 170.8,135.7 170.8,167.3 206.1,146.7 206.1,42.3 170.8,20.2 "/>
<polygon class="st2" points="73.5,31.3 73.5,34.3 73.5,146.7 73.5,149.7 44.9,167.3 44.9,135.7 44.9,45.4 44.9,20.2 "/>
<polygon class="st2" points="7.4,42.3 7.4,146.7 42.8,167.3 42.8,135.7 42.8,45.4 42.8,20.2 "/>
<g>
	<defs>
		<rect id="SVGID_1_" x="7.4" y="7.1" width="198.7" height="161.2"/>
	</defs>
	<clipPath id="SVGID_2_">
		<use xlink:href="#SVGID_1_"  style="overflow:visible;"/>
	</clipPath>
	<path class="st3" d="M201.5,56.3c-9-2.7-13.5-4.1-22.6-6.8v-4.1c9,3,13.5,4.5,22.6,7.5V56.3z"/>
	<path class="st3" d="M201.5,67.8c-9-1.8-13.5-2.7-22.6-4.4v-4.1c9,2.1,13.5,3.1,22.6,5.1V67.8z"/>
	<path class="st3" d="M201.5,79.3c-9-0.8-13.5-1.2-22.6-2v-4.1c9,1.1,13.5,1.6,22.6,2.7V79.3z"/>
	<path class="st3" d="M201.5,90.8c-9,0.1-13.5,0.2-22.6,0.4v-4.1c9,0.1,13.5,0.2,22.6,0.4V90.8z"/>
	<path class="st3" d="M201.5,102.4c-9,1.1-13.5,1.6-22.6,2.7V101c9-0.8,13.5-1.2,22.6-2V102.4z"/>
	<path class="st3" d="M201.5,113.9c-9,2.1-13.5,3.1-22.6,5.1v-4.1c9-1.8,13.5-2.7,22.6-4.4V113.9z"/>
	<path class="st3" d="M201.5,125.4c-9,3-13.5,4.5-22.6,7.5v-4.1c9-2.7,13.5-4.1,22.6-6.8V125.4z"/>
	<path class="st3" d="M12.1,56.3c9-2.7,13.5-4.1,22.6-6.8v-4.1c-9,3-13.5,4.5-22.6,7.5V56.3z"/>
	<path class="st3" d="M12.1,67.8c9-1.8,13.5-2.7,22.6-4.4v-4.1c-9,2.1-13.5,3.1-22.6,5.1V67.8z"/>
	<path class="st3" d="M12.1,79.3c9-0.8,13.5-1.2,22.6-2v-4.1c-9,1.1-13.5,1.6-22.6,2.7V79.3z"/>
	<path class="st3" d="M12.1,90.8c9,0.1,13.5,0.2,22.6,0.4v-4.1c-9,0.1-13.5,0.2-22.6,0.4V90.8z"/>
	<path class="st3" d="M12.1,102.4c9,1.1,13.5,1.6,22.6,2.7V101c-9-0.8-13.5-1.2-22.6-2V102.4z"/>
	<path class="st3" d="M12.1,113.9c9,2.1,13.5,3.1,22.6,5.1v-4.1c-9-1.8-13.5-2.7-22.6-4.4V113.9z"/>
	<path class="st3" d="M12.1,125.4c9,3,13.5,4.5,22.6,7.5v-4.1c-9-2.7-13.5-4.1-22.6-6.8V125.4z"/>
</g>
</svg>
