<?xml version="1.0" encoding="UTF-8"?>
<svg width="62px" height="67px" viewBox="0 0 62 67" version="1.1" xmlns="http://www.w3.org/2000/svg" xmlns:xlink="http://www.w3.org/1999/xlink">
    <!-- Generator: Sketch 42 (36781) - http://www.bohemiancoding.com/sketch -->
    <title>futureproof</title>
    <desc>Created with Sketch.</desc>
    <defs>
        <circle id="path-1" cx="31" cy="36" r="31"></circle>
    </defs>
    <g id="Page-1" stroke="none" stroke-width="1" fill="none" fill-rule="evenodd">
        <g id="WhyGoogle2" transform="translate(-227.000000, -837.000000)">
            <g id="whygoogle" transform="translate(188.000000, 603.000000)">
                <g id="card" transform="translate(5.000000, 193.000000)">
                    <g id="futureproof" transform="translate(34.000000, 41.000000)">
                        <ellipse id="Oval-24" fill="#E2E2E2" cx="37.2372881" cy="18.0932203" rx="18.9830508" ry="4.44915254"></ellipse>
                        <mask id="mask-2" fill="white">
                            <use xlink:href="#path-1"></use>
                        </mask>
                        <use id="Oval" fill="#445965" xlink:href="#path-1"></use>
                        <path d="M52.9540736,70.1304348 L53,70.1304348 L53,59 L11,59 L11,70.1304348 L11.0459264,70.1304348 C11.7663469,72.8497502 20.8724602,75 32,75 C43.1275398,75 52.2336531,72.8497502 52.9540736,70.1304348 Z" id="Combined-Shape" fill="#90CAF9" mask="url(#mask-2)"></path>
                        <path d="M54.9496997,66.826087 L55,66.826087 L55,55 L9,55 L9,66.826087 L9.05030032,66.826087 C9.83933231,69.7153596 19.8126945,72 32,72 C44.1873055,72 54.1606677,69.7153596 54.9496997,66.826087 Z" id="Combined-Shape" fill="#FFFFFF" mask="url(#mask-2)"></path>
                        <path d="M32,61 C44.7025492,61 55,58.5375661 55,55.5 C55,52.4624339 44.7025492,50 32,50 C19.2974508,50 9,52.4624339 9,55.5 C9,58.5375661 19.2974508,61 32,61 Z" id="Oval-24" fill="#E2E2E2" mask="url(#mask-2)"></path>
                        <path d="M52.9540736,54.1304348 L53,54.1304348 L53,43 L11,43 L11,54.1304348 L11.0459264,54.1304348 C11.7663469,56.8497502 20.8724602,59 32,59 C43.1275398,59 52.2336531,56.8497502 52.9540736,54.1304348 Z" id="Combined-Shape" fill="#90CAF9" mask="url(#mask-2)"></path>
                        <path d="M54.9496997,50.826087 L55,50.826087 L55,39 L9,39 L9,50.826087 L9.05030032,50.826087 C9.83933231,53.7153596 19.8126945,56 32,56 C44.1873055,56 54.1606677,53.7153596 54.9496997,50.826087 Z" id="Combined-Shape" fill="#FFFFFF" mask="url(#mask-2)"></path>
                        <ellipse id="Oval-24" fill="#E2E2E2" mask="url(#mask-2)" cx="32" cy="38.5" rx="23" ry="5.5"></ellipse>
                        <path d="M52.9540736,37.1304348 L53,37.1304348 L53,26 L11,26 L11,37.1304348 L11.0459264,37.1304348 C11.7663469,39.8497502 20.8724602,42 32,42 C43.1275398,42 52.2336531,39.8497502 52.9540736,37.1304348 Z" id="Combined-Shape" fill="#90CAF9" mask="url(#mask-2)"></path>
                        <path d="M54.9496997,33.826087 L55,33.826087 L55,22 L9,22 L9,33.826087 L9.05030032,33.826087 C9.83933231,36.7153596 19.8126945,39 32,39 C44.1873055,39 54.1606677,36.7153596 54.9496997,33.826087 Z" id="Combined-Shape" fill="#FFFFFF" mask="url(#mask-2)"></path>
                        <ellipse id="Oval-24" fill="#E2E2E2" mask="url(#mask-2)" cx="32" cy="22.5" rx="23" ry="5.5"></ellipse>
                        <path d="M52.9540736,20.1304348 L53,20.1304348 L53,9 L11,9 L11,20.1304348 L11.0459264,20.1304348 C11.7663469,22.8497502 20.8724602,25 32,25 C43.1275398,25 52.2336531,22.8497502 52.9540736,20.1304348 Z" id="Combined-Shape" fill="#90CAF9"></path>
                        <path d="M54.9496997,16.826087 L55,16.826087 L55,5 L9,5 L9,16.826087 L9.05030032,16.826087 C9.83933231,19.7153596 19.8126945,22 32,22 C44.1873055,22 54.1606677,19.7153596 54.9496997,16.826087 Z" id="Combined-Shape" fill="#FAFAFA"></path>
                        <ellipse id="Oval-24" fill="#E2E2E2" cx="32" cy="5.5" rx="23" ry="5.5"></ellipse>
                    </g>
                </g>
            </g>
        </g>
    </g>
</svg>