<?xml version="1.0" encoding="utf-8"?>
<!-- Generator: Adobe Illustrator 12.0.0, SVG Export Plug-In . SVG Version: 6.00 Build 51448)  -->
<!DOCTYPE svg PUBLIC "-//W3C//DTD SVG 1.1//EN" "http://www.w3.org/Graphics/SVG/1.1/DTD/svg11.dtd" [
	<!ENTITY ns_svg "http://www.w3.org/2000/svg">
	<!ENTITY ns_xlink "http://www.w3.org/1999/xlink">
]>
<svg  version="1.1" id="Layer_1" xmlns="&ns_svg;" xmlns:xlink="&ns_xlink;" width="490.023" height="303.541"
	 viewBox="0 0 490.023 303.541" overflow="visible" enable-background="new 0 0 490.023 303.541" xml:space="preserve">
<path fill="#FFFFFF" d="M113.223,265.935c0.711,0,1.41,0.047,2.094,0.146c2.828,0.398,5.398,1.592,7.485,3.344
	c0.027-1.377,0.167-2.726,0.402-4.041c0.171-0.97,0.401-1.913,0.677-2.839c2.286-7.661,8.033-13.829,15.429-16.685
	c0.851-0.329,1.721-0.618,2.613-0.854c2.13-0.568,4.365-0.878,6.677-0.878c0.359,0,0.714,0.013,1.071,0.026
	c13.757,0.561,24.741,11.889,24.741,25.783c0,2.637-0.397,5.183-1.134,7.575c4.944,0.111,8.919,4.146,8.919,9.116
	c0,5.037-4.082,9.12-9.123,9.12h-24.475h-1.112h-34.266c-8.234,0-14.909-6.672-14.909-14.906
	C98.313,272.609,104.989,265.935,113.223,265.935"/>
<path fill="#FFFFFF" d="M288.817,265.338c0.911,0,1.805,0.063,2.686,0.188c3.621,0.512,6.917,2.036,9.589,4.282
	c0.039-1.762,0.215-3.49,0.515-5.177c0.221-1.238,0.515-2.449,0.868-3.634c2.93-9.821,10.291-17.721,19.769-21.382
	c1.092-0.42,2.209-0.789,3.351-1.097c2.728-0.727,5.593-1.123,8.556-1.123c0.459,0,0.911,0.017,1.37,0.034
	c17.63,0.718,31.703,15.232,31.703,33.037c0,3.381-0.51,6.64-1.451,9.707c6.335,0.142,11.431,5.311,11.431,11.679
	c0,6.455-5.234,11.688-11.69,11.688h-31.362h-1.423h-43.909c-10.55,0-19.102-8.553-19.102-19.1
	C269.716,273.889,278.268,265.338,288.817,265.338"/>
<path fill="#FFFFFF" d="M227.35,50.96c-1.417,0-2.812,0.1-4.175,0.293c-5.632,0.794-10.758,3.167-14.914,6.661
	c-0.057-2.74-0.334-5.433-0.8-8.052c-0.342-1.928-0.8-3.812-1.354-5.658c-4.554-15.269-16.003-27.553-30.74-33.25
	c-1.696-0.652-3.436-1.226-5.211-1.7c-4.245-1.133-8.7-1.75-13.305-1.75c-0.714,0-1.423,0.026-2.133,0.057
	c-27.416,1.113-49.304,23.686-49.304,51.378c0,5.255,0.794,10.323,2.258,15.095c-9.852,0.219-17.774,8.259-17.774,18.162
	c0,10.039,8.139,18.176,18.181,18.176h48.773h2.214h68.286c16.407,0,29.708-13.296,29.708-29.705
	C257.058,64.261,243.756,50.96,227.35,50.96"/>
<path fill-rule="evenodd" clip-rule="evenodd" fill="#989898" d="M344.152,157.333l142.964,21.616
	c1.86,0.279,3.151,2.029,2.868,3.89c-0.277,1.858-2.021,3.068-3.888,2.868l-143.916-15.334
	C334.505,169.557,337.399,156.313,344.152,157.333"/>
<path fill-rule="evenodd" clip-rule="evenodd" fill="#4E4E4E" d="M489.984,182.839c-0.277,1.858-2.021,3.068-3.891,2.868
	l-143.913-15.334c-3.635-0.386-4.898-3.563-4.505-6.688L489.984,182.839z"/>
<path fill-rule="evenodd" clip-rule="evenodd" fill="#4E4E4E" d="M390.318,173.427c9.806,1.483,16.556,10.634,15.07,20.439
	c-1.484,9.806-10.636,16.556-20.441,15.074c-9.807-1.485-16.552-10.636-15.069-20.439
	C371.361,178.691,380.512,171.945,390.318,173.427"/>
<path fill-rule="evenodd" clip-rule="evenodd" fill="#989898" d="M389.563,178.413c7.055,1.067,11.908,7.649,10.843,14.701
	c-1.065,7.055-7.649,11.91-14.705,10.843c-7.054-1.068-11.904-7.649-10.84-14.705C375.927,182.198,382.51,177.347,389.563,178.413"
	/>
<path fill-rule="evenodd" clip-rule="evenodd" fill="#FFFFFF" d="M390.729,178.976c2.229,1.555,3.38,4.383,2.67,7.174
	c-0.707,2.791-3.067,4.729-5.766,5.033c1.737-1.143,3.152-3.106,3.767-5.54C392.02,183.212,391.715,180.808,390.729,178.976"/>
<path fill-rule="evenodd" clip-rule="evenodd" fill="#FFFFFF" d="M399.755,187.759c-0.233,2.713-2.106,5.117-4.879,5.902
	c-2.772,0.78-5.628-0.293-7.244-2.479c1.86,0.936,4.269,1.175,6.685,0.495C396.731,190.996,398.655,189.528,399.755,187.759"/>
<path fill-rule="evenodd" clip-rule="evenodd" fill="#FFFFFF" d="M396.657,199.968c-2.463,1.152-5.484,0.737-7.548-1.274
	c-2.066-2.009-2.563-5.019-1.477-7.511c0.119,2.08,1.113,4.286,2.913,6.034C392.345,198.967,394.577,199.905,396.657,199.968"/>
<path fill-rule="evenodd" clip-rule="evenodd" fill="#FFFFFF" d="M384.539,203.392c-2.231-1.557-3.38-4.381-2.674-7.173
	c0.707-2.795,3.064-4.728,5.767-5.036c-1.737,1.144-3.152,3.109-3.768,5.543C383.245,199.157,383.552,201.559,384.539,203.392"/>
<path fill-rule="evenodd" clip-rule="evenodd" fill="#FFFFFF" d="M375.51,194.605c0.236-2.709,2.109-5.115,4.881-5.897
	c2.771-0.785,5.626,0.288,7.241,2.476c-1.858-0.932-4.27-1.177-6.682-0.495C378.531,191.371,376.609,192.836,375.51,194.605"/>
<path fill-rule="evenodd" clip-rule="evenodd" fill="#FFFFFF" d="M378.607,182.397c2.462-1.15,5.486-0.731,7.55,1.274
	c2.063,2.01,2.563,5.019,1.476,7.512c-0.121-2.077-1.117-4.283-2.913-6.035C382.919,183.399,380.688,182.465,378.607,182.397"/>
<path fill-rule="evenodd" clip-rule="evenodd" fill="#4E4E4E" d="M388.152,187.76c1.888,0.289,3.187,2.053,2.9,3.941
	c-0.283,1.888-2.049,3.188-3.938,2.9c-1.889-0.284-3.188-2.045-2.903-3.937C384.499,188.778,386.26,187.474,388.152,187.76"/>
<path fill-rule="evenodd" clip-rule="evenodd" fill="#989898" d="M140.56,109.937L4.577,60.802c-1.77-0.641-3.738,0.286-4.377,2.055
	c-0.64,1.767,0.315,3.66,2.053,4.376l133.827,55.108C143.216,125.281,146.983,112.258,140.56,109.937"/>
<path fill-rule="evenodd" clip-rule="evenodd" fill="#4E4E4E" d="M0.2,62.857c-0.64,1.767,0.315,3.66,2.053,4.376l133.827,55.108
	c3.379,1.393,6.002-0.797,7.146-3.732L0.2,62.857z"/>
<path fill-rule="evenodd" clip-rule="evenodd" fill="#4E4E4E" d="M92.307,102.084c-9.328-3.371-19.623,1.459-22.992,10.787
	c-3.37,9.327,1.459,19.62,10.788,22.991c9.33,3.37,19.621-1.459,22.989-10.786C106.463,115.748,101.635,105.454,92.307,102.084"/>
<path fill-rule="evenodd" clip-rule="evenodd" fill="#989898" d="M90.592,106.825c-6.708-2.424-14.112,1.049-16.539,7.759
	c-2.423,6.708,1.052,14.115,7.76,16.538c6.711,2.425,14.116-1.049,16.54-7.758C100.775,116.654,97.303,109.25,90.592,106.825"/>
<path fill-rule="evenodd" clip-rule="evenodd" fill="#FFFFFF" d="M89.3,106.764c-2.701,0.308-5.061,2.244-5.766,5.037
	c-0.709,2.79,0.441,5.616,2.671,7.172c-0.986-1.834-1.292-4.234-0.676-6.667C86.147,109.873,87.56,107.908,89.3,106.764"/>
<path fill-rule="evenodd" clip-rule="evenodd" fill="#FFFFFF" d="M77.179,110.187c-1.084,2.495-0.586,5.502,1.475,7.511
	c2.065,2.01,5.086,2.428,7.55,1.275c-2.08-0.063-4.312-1-6.111-2.751C78.295,114.471,77.3,112.265,77.179,110.187"/>
<path fill-rule="evenodd" clip-rule="evenodd" fill="#FFFFFF" d="M74.083,122.396c1.617,2.186,4.471,3.259,7.243,2.476
	c2.772-0.781,4.646-3.192,4.88-5.899c-1.099,1.77-3.023,3.236-5.439,3.916C78.348,123.572,75.94,123.33,74.083,122.396"/>
<path fill-rule="evenodd" clip-rule="evenodd" fill="#FFFFFF" d="M83.107,131.181c2.7-0.305,5.057-2.242,5.767-5.035
	c0.707-2.79-0.443-5.616-2.672-7.173c0.985,1.834,1.292,4.237,0.673,6.667C86.258,128.074,84.846,130.038,83.107,131.181"/>
<path fill-rule="evenodd" clip-rule="evenodd" fill="#FFFFFF" d="M95.229,127.76c1.085-2.494,0.586-5.504-1.477-7.513
	c-2.063-2.008-5.085-2.424-7.548-1.274c2.081,0.065,4.313,1.001,6.112,2.752C94.114,123.475,95.108,125.683,95.229,127.76"/>
<path fill-rule="evenodd" clip-rule="evenodd" fill="#FFFFFF" d="M98.323,115.552c-1.614-2.188-4.471-3.259-7.244-2.478
	c-2.766,0.783-4.641,3.191-4.875,5.899c1.096-1.769,3.021-3.235,5.437-3.916C94.057,114.374,96.466,114.615,98.323,115.552"/>
<path fill-rule="evenodd" clip-rule="evenodd" fill="#4E4E4E" d="M87.38,115.718c-1.798-0.648-3.781,0.283-4.431,2.08
	c-0.648,1.798,0.282,3.779,2.079,4.429c1.797,0.648,3.78-0.284,4.426-2.079C90.107,118.352,89.177,116.368,87.38,115.718"/>
<polygon fill-rule="evenodd" clip-rule="evenodd" fill="#4E4E4E" points="196.215,222.674 239.5,233.652 250.468,275.558 
	166.601,254.287 "/>
<path fill-rule="evenodd" clip-rule="evenodd" fill="#4E4E4E" d="M156.059,43.784l204.001,51.741
	c5.742,1.457,9.248,7.346,7.791,13.086l-37.273,146.955c-1.457,5.74-7.344,9.244-13.086,7.789l-204-51.74
	c-5.739-1.456-9.246-7.345-7.788-13.084l37.272-146.957C144.432,45.833,150.32,42.329,156.059,43.784"/>
<path fill-rule="evenodd" clip-rule="evenodd" fill="#989898" d="M317.94,252.208c0.748,0.191,1.199,0.951,1.012,1.698
	c-0.192,0.748-0.952,1.202-1.697,1.014c-0.75-0.191-1.204-0.951-1.015-1.701C316.431,252.472,317.19,252.019,317.94,252.208"/>
<path fill-rule="evenodd" clip-rule="evenodd" fill="#989898" d="M312.649,250.867c0.746,0.19,1.199,0.95,1.009,1.7
	c-0.188,0.747-0.951,1.199-1.7,1.009c-0.745-0.189-1.199-0.948-1.009-1.699C311.139,251.131,311.899,250.677,312.649,250.867"/>
<path fill-rule="evenodd" clip-rule="evenodd" fill="#989898" d="M307.358,249.524c0.744,0.188,1.2,0.951,1.008,1.7
	c-0.188,0.745-0.95,1.201-1.699,1.009c-0.747-0.188-1.198-0.95-1.01-1.696C305.845,249.787,306.608,249.335,307.358,249.524"/>
<path fill-rule="evenodd" clip-rule="evenodd" fill="#989898" d="M86.859,222.238l248.986,63.151
	c3.057,0.775,4.92,3.908,4.146,6.965v0.001c-0.776,3.053-3.908,4.92-6.963,4.144L84.041,233.346
	c-3.055-0.777-4.92-3.907-4.145-6.962C80.67,223.329,83.804,221.462,86.859,222.238"/>
<path fill-rule="evenodd" clip-rule="evenodd" fill="#4E4E4E" d="M339.991,292.354c-0.776,3.054-3.908,4.917-6.963,4.145
	L84.041,233.346c-3.055-0.776-4.92-3.908-4.145-6.962L339.991,292.354z"/>
<rect x="129.519" y="73.478" transform="matrix(-0.9693 -0.2458 0.2458 -0.9693 433.2107 348.6713)" fill-rule="evenodd" clip-rule="evenodd" fill="#E8EFEF" width="217.702" height="147.634"/>
<rect x="184.692" y="75.626" transform="matrix(-0.9693 -0.2459 0.2459 -0.9693 483.7794 219.2847)" fill-rule="evenodd" clip-rule="evenodd" fill="#F4C431" width="141.772" height="7.634"/>
<rect x="219.077" y="87.468" transform="matrix(-0.9693 -0.2459 0.2459 -0.9693 473.4643 245.6765)" fill-rule="evenodd" clip-rule="evenodd" fill="#59C4CB" width="65.983" height="11.63"/>
<rect x="172.463" y="111.627" transform="matrix(-0.9693 -0.2459 0.2459 -0.9693 447.8436 311.2257)" fill-rule="evenodd" clip-rule="evenodd" fill="#59C4CB" width="141.772" height="32.062"/>
<polygon fill-rule="evenodd" clip-rule="evenodd" fill="#59C4CB" points="206.007,97.321 290.638,118.786 291.839,114.062 
	207.203,92.596 "/>
<rect x="149.87" y="214.55" transform="matrix(-0.9693 -0.2459 0.2459 -0.9693 381.452 481.0839)" fill-rule="evenodd" clip-rule="evenodd" fill="#F4C431" width="141.771" height="4.363"/>
<rect x="169.051" y="166.984" transform="matrix(-0.9693 -0.2459 0.2459 -0.9693 326.306 379.5834)" fill-rule="evenodd" clip-rule="evenodd" fill="#59C4CB" width="35.598" height="4.874"/>
<rect x="166.989" y="175.102" transform="matrix(-0.9693 -0.2458 0.2458 -0.9693 320.262 395.058)" fill-rule="evenodd" clip-rule="evenodd" fill="#59C4CB" width="35.6" height="4.875"/>
<rect x="164.931" y="183.22" transform="matrix(-0.9693 -0.2459 0.2459 -0.9693 314.2064 410.5456)" fill-rule="evenodd" clip-rule="evenodd" fill="#59C4CB" width="35.601" height="4.877"/>
<rect x="163.074" y="189.736" transform="matrix(-0.9693 -0.2458 0.2458 -0.9693 296.0988 421.3051)" fill-rule="evenodd" clip-rule="evenodd" fill="#59C4CB" width="22.538" height="4.874"/>
<rect x="212.181" y="177.922" transform="matrix(-0.9693 -0.2459 0.2459 -0.9693 408.5571 411.7299)" fill-rule="evenodd" clip-rule="evenodd" fill="#59C4CB" width="35.602" height="4.875"/>
<polygon fill-rule="evenodd" clip-rule="evenodd" fill="#59C4CB" points="210.07,186.466 244.58,195.22 245.775,190.491 
	211.271,181.741 "/>
<rect x="208.064" y="194.161" transform="matrix(-0.9693 -0.2459 0.2459 -0.9693 396.4601 442.6921)" fill-rule="evenodd" clip-rule="evenodd" fill="#59C4CB" width="35.598" height="4.875"/>
<rect x="206.206" y="200.675" transform="matrix(-0.9693 -0.2458 0.2458 -0.9693 378.3675 453.4396)" fill-rule="evenodd" clip-rule="evenodd" fill="#59C4CB" width="22.539" height="4.874"/>
<polygon fill-rule="evenodd" clip-rule="evenodd" fill="#59C4CB" points="255.262,189.288 289.772,198.039 290.969,193.316 
	256.464,184.562 "/>
<polygon fill-rule="evenodd" clip-rule="evenodd" fill="#59C4CB" points="253.203,197.406 287.715,206.163 288.909,201.432 
	254.402,192.68 "/>
<rect x="251.196" y="205.1" transform="matrix(-0.9693 -0.2458 0.2458 -0.9693 478.7158 474.8376)" fill-rule="evenodd" clip-rule="evenodd" fill="#59C4CB" width="35.6" height="4.876"/>
<rect x="249.339" y="211.615" transform="matrix(-0.9693 -0.2457 0.2457 -0.9693 460.6266 485.5818)" fill-rule="evenodd" clip-rule="evenodd" fill="#59C4CB" width="22.541" height="4.874"/>
<path fill="#FFFFFF" d="M363.546,21.806c-0.714,0-1.411,0.052-2.096,0.148c-2.827,0.4-5.4,1.589-7.487,3.343
	c-0.028-1.377-0.164-2.724-0.398-4.041c-0.175-0.966-0.402-1.913-0.68-2.837c-2.287-7.663-8.035-13.829-15.428-16.687
	c-0.851-0.328-1.722-0.615-2.613-0.853C332.71,0.311,330.479,0,328.166,0c-0.36,0-0.713,0.015-1.07,0.029
	c-13.758,0.56-24.744,11.885-24.744,25.781c0,2.638,0.401,5.18,1.136,7.579c-4.945,0.108-8.922,4.142-8.922,9.112
	c0,5.04,4.088,9.121,9.125,9.121h24.476h1.11h34.27c8.232,0,14.906-6.675,14.906-14.906
	C378.452,28.483,371.778,21.806,363.546,21.806"/>
<circle fill-rule="evenodd" clip-rule="evenodd" fill="#06A5BA" cx="278.488" cy="172.788" r="12.512"/>
<circle fill-rule="evenodd" clip-rule="evenodd" fill="#E51C44" cx="235.403" cy="161.687" r="12.511"/>
<circle fill-rule="evenodd" clip-rule="evenodd" fill="#F4C431" cx="191.377" cy="150.586" r="12.511"/>
</svg>
