<?xml version="1.0" encoding="UTF-8" standalone="no"?>
<svg width="199px" height="133px" viewBox="0 0 199 133" version="1.1" xmlns="http://www.w3.org/2000/svg" xmlns:xlink="http://www.w3.org/1999/xlink">
    <!-- Generator: Sketch 3.8.3 (29802) - http://www.bohemiancoding.com/sketch -->
    <title>Low-Cost</title>
    <desc>Created with Sketch.</desc>
    <defs></defs>
    <g id="Page-1" stroke="none" stroke-width="1" fill="none" fill-rule="evenodd">
        <g id="Industry-Leading-Price-&amp;-Performance-Copy-3" transform="translate(-70.000000, -358.000000)">
            <g id="Group-4" transform="translate(70.000000, 358.000000)">
                <g id="compute-chart" transform="translate(9.000000, 2.000000)">
                    <g id="usage-arrow">
                        <path d="M176.40625,13.0556641 L146.525391,55.2216797" id="Line" stroke="#CFD8DC" stroke-width="4" stroke-linecap="square"></path>
                        <polygon id="Path-14" fill="#CFD8DC" transform="translate(176.022074, 12.976844) rotate(-105.000000) translate(-176.022074, -12.976844) " points="165.440043 16.6619024 181.81016 2.33084773 186.604105 23.6228399"></polygon>
                        <path d="M114.336914,55.5400391 L143.686523,55.5400391" id="Line" stroke="#CFD8DC" stroke-width="4" stroke-linecap="square"></path>
                        <path d="M72.5576172,84.8134766 L109.883789,55.3115234" id="Line" stroke="#CFD8DC" stroke-width="4" stroke-linecap="square"></path>
                        <path d="M46,85 L71.8730469,85" id="Line" stroke="#CFD8DC" stroke-width="4" stroke-linecap="square"></path>
                        <path d="M41.2050781,85.7744141 L5.94824219,111.140625" id="Line" stroke="#CFD8DC" stroke-width="4" stroke-linecap="square"></path>
                        <ellipse id="Oval-1" fill="#CFD8DC" cx="146.5" cy="55.5" rx="5.5" ry="5.5"></ellipse>
                        <ellipse id="Oval-1-Copy" fill="#CFD8DC" cx="109.5" cy="55.5" rx="5.5" ry="5.5"></ellipse>
                        <ellipse id="Oval-1-Copy-2" fill="#CFD8DC" cx="71.5" cy="85.5" rx="5.5" ry="5.5"></ellipse>
                        <ellipse id="Oval-1" fill="#CFD8DC" cx="41.5" cy="85.5" rx="5.5" ry="5.5"></ellipse>
                        <ellipse id="Oval-1" fill="#CFD8DC" cx="5.5" cy="111.5" rx="5.5" ry="5.5"></ellipse>
                    </g>
                    <g id="cost-arrow" transform="translate(0.000000, 6.000000)">
                        <path d="M5.60546875,5.93652344 L32.5898438,42.4873047" id="Line" stroke="#6ABE71" stroke-width="4" stroke-linecap="square"></path>
                        <path d="M34,42.2519531 L69.6074219,42.2519531" id="Line" stroke="#6BBE71" stroke-width="4" stroke-linecap="square"></path>
                        <path d="M102.54248,74.2329102 L134.811035,74.2329102" id="Line" stroke="#6BBE71" stroke-width="4" stroke-linecap="square"></path>
                        <path d="M69.953125,42.3779297 L100.682617,73.3071289" id="Line" stroke="#6BBE71" stroke-width="4" stroke-linecap="square"></path>
                        <polygon id="Path-14" fill="#6BBE71" transform="translate(171.179650, 106.921297) rotate(-8.000000) translate(-171.179650, -106.921297) " points="160.597618 110.606356 176.967736 96.2753011 181.761681 117.567293"></polygon>
                        <path d="M136.494629,74.8852539 L168.664062,104.302734" id="Line" stroke="#6BBE71" stroke-width="4" stroke-linecap="square"></path>
                        <ellipse id="Oval-1" fill="#6BBE71" cx="69.5" cy="42.5" rx="5.5" ry="5.5"></ellipse>
                        <ellipse id="Oval-1-Copy" fill="#6BBE71" cx="100.5" cy="73.5" rx="5.5" ry="5.5"></ellipse>
                        <ellipse id="Oval-1-Copy-2" fill="#6BBE71" cx="135.5" cy="74.5" rx="5.5" ry="5.5"></ellipse>
                        <ellipse id="Oval-1" fill="#6BBE71" cx="31.5" cy="41.5" rx="5.5" ry="5.5"></ellipse>
                        <ellipse id="Oval-1" fill="#6BBE71" cx="5.5" cy="5.5" rx="5.5" ry="5.5"></ellipse>
                    </g>
                </g>
                <polyline id="Path-131" stroke="#CFD8DC" stroke-width="0.5" points="0.708733324 0.696194756 0.708733324 131.798657 198.86625 131.798657"></polyline>
            </g>
        </g>
    </g>
</svg>