<?xml version="1.0" encoding="UTF-8"?>
<svg width="62px" height="65px" viewBox="0 0 62 65" version="1.1" xmlns="http://www.w3.org/2000/svg" xmlns:xlink="http://www.w3.org/1999/xlink">
    <!-- Generator: Sketch 42 (36781) - http://www.bohemiancoding.com/sketch -->
    <title>mobile</title>
    <desc>Created with Sketch.</desc>
    <defs>
        <rect id="path-1" x="6" y="0" width="51" height="40"></rect>
        <circle id="path-3" cx="31" cy="41" r="31"></circle>
    </defs>
    <g id="Page-1" stroke="none" stroke-width="1" fill="none" fill-rule="evenodd">
        <g id="solutions_landing" transform="translate(-453.000000, -563.000000)">
            <g id="card" transform="translate(433.000000, 523.000000)">
                <g id="mobile" transform="translate(20.000000, 33.000000)">
                    <mask id="mask-2" fill="white">
                        <use xlink:href="#path-1"></use>
                    </mask>
                    <g id="Rectangle-3"></g>
                    <g id="Group-28" mask="url(#mask-2)">
                        <g transform="translate(10.000000, 7.000000)">
                            <path d="M35.7706496,77.2440357 L6.65121221,77.2440357 C3.30100057,77.2440357 0.803780614,74.2231126 0.803780614,71.1651985 L0.803780614,5.19017493 C0.803780614,2.33659157 3.11959511,0.491450469 6.24690959,0.491450469 L35.366347,0.491450469 C38.7155937,0.491450469 41.8525574,2.50128912 41.8525574,5.64111156 L41.8525574,71.6170159 C41.8525574,74.3763606 38.8844552,77.2440357 35.7706496,77.2440357 L35.7706496,77.2440357 Z" id="Fill-24" fill="#66BBFF"></path>
                            <path d="M2.29555112,67.9337796 L40.359822,67.9337796 L40.359822,8.43920859 L2.29555112,8.43920859 L2.29555112,67.9337796 Z M35.7706496,77.2440357 L6.65121221,77.2440357 C3.30100057,77.2440357 0.803780614,74.2231126 0.803780614,71.1651985 L0.803780614,5.19017493 C0.803780614,2.33659157 3.11959511,0.491450469 6.24690959,0.491450469 L35.366347,0.491450469 C38.7155937,0.491450469 41.8525574,2.50128912 41.8525574,5.64111156 L41.8525574,71.6170159 C41.8525574,74.3763606 38.8844552,77.2440357 35.7706496,77.2440357 L35.7706496,77.2440357 Z" id="Fill-24" fill="#66BBFF"></path>
                            <rect id="Rectangle-15" fill="#FFFFFF" x="3.2807372" y="9.78280187" width="36.0881092" height="57.0663442"></rect>
                            <rect id="Rectangle-14" fill="#84CCF9" x="9.4020834" y="42.3921414" width="15.0273943" height="4.89140093"></rect>
                            <rect id="Rectangle-14" fill="#84CCF9" x="26.0991882" y="42.3921414" width="8.34855239" height="4.89140093"></rect>
                            <rect id="Rectangle-14" fill="#1469B5" x="19.4203463" y="48.9140093" width="15.0273943" height="4.89140093"></rect>
                            <rect id="Rectangle-14" fill="#1469B5" x="9.4020834" y="48.9140093" width="8.34855239" height="4.89140093"></rect>
                            <rect id="Rectangle-13" fill="#84CCF9" x="18.0440546" y="4.89140093" width="6.5614744" height="1.63046698" rx="0.815233489"></rect>
                            <ellipse id="Oval-5" fill="#84CCF9" cx="21.3247918" cy="26.0874716" rx="8.201843" ry="8.15233489"></ellipse>
                        </g>
                    </g>
                    <mask id="mask-4" fill="white">
                        <use xlink:href="#path-3"></use>
                    </mask>
                    <use id="Oval" fill="#445965" xlink:href="#path-3"></use>
                    <g mask="url(#mask-4)" id="Group-28">
                        <g transform="translate(10.000000, 7.000000)">
                            <g>
                                <path d="M35.7706496,77.2440357 L6.65121221,77.2440357 C3.30100057,77.2440357 0.803780614,74.2231126 0.803780614,71.1651985 L0.803780614,5.19017493 C0.803780614,2.33659157 3.11959511,0.491450469 6.24690959,0.491450469 L35.366347,0.491450469 C38.7155937,0.491450469 41.8525574,2.50128912 41.8525574,5.64111156 L41.8525574,71.6170159 C41.8525574,74.3763606 38.8844552,77.2440357 35.7706496,77.2440357 L35.7706496,77.2440357 Z" id="Fill-24" fill="#66BBFF"></path>
                                <path d="M2.29555112,67.9337796 L40.359822,67.9337796 L40.359822,8.43920859 L2.29555112,8.43920859 L2.29555112,67.9337796 Z M35.7706496,77.2440357 L6.65121221,77.2440357 C3.30100057,77.2440357 0.803780614,74.2231126 0.803780614,71.1651985 L0.803780614,5.19017493 C0.803780614,2.33659157 3.11959511,0.491450469 6.24690959,0.491450469 L35.366347,0.491450469 C38.7155937,0.491450469 41.8525574,2.50128912 41.8525574,5.64111156 L41.8525574,71.6170159 C41.8525574,74.3763606 38.8844552,77.2440357 35.7706496,77.2440357 L35.7706496,77.2440357 Z" id="Fill-24" fill="#66BBFF"></path>
                                <rect id="Rectangle-15" fill="#F5F5F5" x="3.2807372" y="9.78280187" width="36.0881092" height="57.0663442"></rect>
                                <rect id="Rectangle-14" fill="#84CCF9" x="9.4020834" y="42.3921414" width="15.0273943" height="4.89140093"></rect>
                                <rect id="Rectangle-14" fill="#84CCF9" x="26.0991882" y="42.3921414" width="8.34855239" height="4.89140093"></rect>
                                <rect id="Rectangle-14" fill="#1469B5" x="19.4203463" y="48.9140093" width="15.0273943" height="4.89140093"></rect>
                                <rect id="Rectangle-14" fill="#1469B5" x="9.4020834" y="48.9140093" width="8.34855239" height="4.89140093"></rect>
                                <rect id="Rectangle-13" fill="#FFFFFF" x="18.0440546" y="4.89140093" width="6.5614744" height="1.63046698" rx="0.815233489"></rect>
                                <ellipse id="Oval-5" fill="#536D79" cx="21.3247918" cy="26.0874716" rx="8.201843" ry="8.15233489"></ellipse>
                            </g>
                        </g>
                    </g>
                </g>
            </g>
        </g>
    </g>
</svg>