<?xml version="1.0" encoding="UTF-8"?>
<svg width="71px" height="67px" viewBox="0 0 71 67" version="1.1" xmlns="http://www.w3.org/2000/svg" xmlns:xlink="http://www.w3.org/1999/xlink">
    <!-- Generator: Sketch 42 (36781) - http://www.bohemiancoding.com/sketch -->
    <title>security</title>
    <desc>Created with Sketch.</desc>
    <defs>
        <circle id="path-1" cx="46" cy="36" r="31"></circle>
    </defs>
    <g id="Page-1" stroke="none" stroke-width="1" fill="none" fill-rule="evenodd">
        <g id="WhyGoogle2" transform="translate(-947.000000, -1210.000000)">
            <g id="whygoogle" transform="translate(188.000000, 603.000000)">
                <g id="card" transform="translate(723.723420, 573.000000)">
                    <g id="security" transform="translate(29.000000, 34.000000)">
                        <ellipse id="Oval-24" fill="#E2E2E2" cx="52.2372881" cy="18.0932203" rx="18.9830508" ry="4.44915254"></ellipse>
                        <mask id="mask-2" fill="white">
                            <use xlink:href="#path-1"></use>
                        </mask>
                        <use id="Oval" fill="#445965" xlink:href="#path-1"></use>
                        <path d="M71.1788236,69.2262343 L71.220339,69.2262343 L71.220339,59.3220339 L33.2542373,59.3220339 L33.2542373,69.2262343 L33.2957527,69.2262343 C33.9469802,71.6459642 42.1784951,73.559322 52.2372881,73.559322 C62.2960812,73.559322 70.527596,71.6459642 71.1788236,69.2262343 Z" id="Combined-Shape" fill="#FFFFFF" mask="url(#mask-2)"></path>
                        <ellipse id="Oval-24" fill="#E2E2E2" mask="url(#mask-2)" cx="52.2372881" cy="59.0254237" rx="18.9830508" ry="4.44915254"></ellipse>
                        <path d="M69.9956263,57.8243957 L70.0338983,57.8243957 L70.0338983,48.6440678 L35.0338983,48.6440678 L35.0338983,57.8243957 L35.0721703,57.8243957 C35.6725207,60.0672736 43.2609485,61.8407891 52.5338983,61.8407891 C61.8068481,61.8407891 69.3952759,60.0672736 69.9956263,57.8243957 Z" id="Combined-Shape" fill="#90CAF9" mask="url(#mask-2)"></path>
                        <path d="M71.1788236,55.5821665 L71.220339,55.5821665 L71.220339,45.6779661 L33.2542373,45.6779661 L33.2542373,55.5821665 L33.2957527,55.5821665 C33.9469802,58.0018964 42.1784951,59.9152542 52.2372881,59.9152542 C62.2960812,59.9152542 70.527596,58.0018964 71.1788236,55.5821665 Z" id="Combined-Shape" fill="#FFFFFF" mask="url(#mask-2)"></path>
                        <path d="M52.2372881,49.8305085 C62.7213376,49.8305085 71.220339,47.838555 71.220339,45.3813559 C71.220339,42.9241568 62.7213376,40.9322034 52.2372881,40.9322034 C41.7532386,40.9322034 33.2542373,42.9241568 33.2542373,45.3813559 C33.2542373,47.838555 41.7532386,49.8305085 52.2372881,49.8305085 Z" id="Oval-24" fill="#E2E2E2" mask="url(#mask-2)"></path>
                        <path d="M69.9956263,44.1803279 L70.0338983,44.1803279 L70.0338983,35 L35.0338983,35 L35.0338983,44.1803279 L35.0721703,44.1803279 C35.6725207,46.4232058 43.2609485,48.1967213 52.5338983,48.1967213 C61.8068481,48.1967213 69.3952759,46.4232058 69.9956263,44.1803279 Z" id="Combined-Shape" fill="#90CAF9" mask="url(#mask-2)"></path>
                        <path d="M71.1788236,41.9380987 L71.220339,41.9380987 L71.220339,32.0338983 L33.2542373,32.0338983 L33.2542373,41.9380987 L33.2957527,41.9380987 C33.9469802,44.3578286 42.1784951,46.2711864 52.2372881,46.2711864 C62.2960812,46.2711864 70.527596,44.3578286 71.1788236,41.9380987 Z" id="Combined-Shape" fill="#FFFFFF" mask="url(#mask-2)"></path>
                        <ellipse id="Oval-24" fill="#E2E2E2" mask="url(#mask-2)" cx="52.2372881" cy="31.7372881" rx="18.9830508" ry="4.44915254"></ellipse>
                        <path d="M69.9956263,30.5362601 L70.0338983,30.5362601 L70.0338983,21.3559322 L35.0338983,21.3559322 L35.0338983,30.5362601 L35.0721703,30.5362601 C35.6725207,32.7791381 43.2609485,34.5526535 52.5338983,34.5526535 C61.8068481,34.5526535 69.3952759,32.7791381 69.9956263,30.5362601 Z" id="Combined-Shape" fill="#90CAF9" mask="url(#mask-2)"></path>
                        <path d="M71.1788236,28.294031 L71.220339,28.294031 L71.220339,18.3898305 L33.2542373,18.3898305 L33.2542373,28.294031 L33.2957527,28.294031 C33.9469802,30.7137608 42.1784951,32.6271186 52.2372881,32.6271186 C62.2960812,32.6271186 70.527596,30.7137608 71.1788236,28.294031 Z" id="Combined-Shape" fill="#FFFFFF" mask="url(#mask-2)"></path>
                        <ellipse id="Oval-24" fill="#E2E2E2" mask="url(#mask-2)" cx="52.2372881" cy="18.6864407" rx="18.9830508" ry="4.44915254"></ellipse>
                        <path d="M69.9956263,16.8921923 L70.0338983,16.8921923 L70.0338983,7.71186441 L35.0338983,7.71186441 L35.0338983,16.8921923 L35.0721703,16.8921923 C35.6725207,19.1350703 43.2609485,20.9085857 52.5338983,20.9085857 C61.8068481,20.9085857 69.3952759,19.1350703 69.9956263,16.8921923 Z" id="Combined-Shape" fill="#90CAF9"></path>
                        <path d="M71.1788236,14.6499632 L71.220339,14.6499632 L71.220339,4.74576271 L33.2542373,4.74576271 L33.2542373,14.6499632 L33.2957527,14.6499632 C33.9469802,17.069693 42.1784951,18.9830508 52.2372881,18.9830508 C62.2960812,18.9830508 70.527596,17.069693 71.1788236,14.6499632 Z" id="Combined-Shape" fill="#FAFAFA"></path>
                        <ellipse id="Oval-24" fill="#E2E2E2" cx="52.2372881" cy="5.04237288" rx="18.9830508" ry="4.51977401"></ellipse>
                        <g id="ic_verified_user_black_24dp-(1)" transform="translate(0.000000, 7.000000)">
                            <g id="Group">
                                <polygon id="Shape" points="0 0 56 0 56 56 0 56"></polygon>
                                <path d="M30,3.33333333 L9,12.6666667 L9,26.6666667 C9,39.6166667 17.96,51.7266667 30,54.6666667 C42.04,51.7266667 51,39.6166667 51,26.6666667 L51,12.6666667 L30,3.33333333 Z" id="Shape" fill="#36464E" fill-rule="nonzero" opacity="0.197803442"></path>
                                <path d="M28,2.33333333 L7,11.6666667 L7,25.6666667 C7,38.6166667 15.96,50.7266667 28,53.6666667 C40.04,50.7266667 49,38.6166667 49,25.6666667 L49,11.6666667 L28,2.33333333 Z" id="Shape" fill="#66BBFF" fill-rule="nonzero"></path>
                                <polygon id="Path" fill="#FFFFFF" points="23.3333333 39.6666667 14 30.3333333 17.29 27.0433333 23.3333333 33.0633333 38.71 17.6866667 42 21"></polygon>
                            </g>
                        </g>
                    </g>
                </g>
            </g>
        </g>
    </g>
</svg>