<?xml version="1.0" encoding="UTF-8"?>
<svg width="244px" height="210px" viewBox="0 0 244 210" version="1.1" xmlns="http://www.w3.org/2000/svg" xmlns:xlink="http://www.w3.org/1999/xlink">
    <!-- Generator: Sketch 45 (43475) - http://www.bohemiancoding.com/sketch -->
    <title>Illustration 3@3x</title>
    <desc>Created with Sketch.</desc>
    <defs></defs>
    <g id="Spanner" stroke="none" stroke-width="1" fill="none" fill-rule="evenodd">
        <g id="Container-Engine-GKE" transform="translate(-808.000000, -1146.000000)">
            <g id="Illustration-3" transform="translate(808.000000, 1146.000000)">
                <polygon id="Fill-1" fill="#66BBFF" points="110.101576 115.836823 208.100472 115.836823 208.100472 78.3310348 110.101576 78.3310348"></polygon>
                <polygon id="Fill-2" fill="#4285F4" points="0 147.448073 110.047203 147.448073 110.047203 105.331266 0 105.331266"></polygon>
                <polygon id="Fill-3" fill="#3362B5" points="4.83081013 142.552934 8.77977532 142.552934 8.77977532 110.42169 4.83081013 110.42169"></polygon>
                <polygon id="Fill-4" fill="#3362B5" points="12.2324873 142.552934 16.1814525 142.552934 16.1814525 110.42169 12.2324873 110.42169"></polygon>
                <polygon id="Fill-5" fill="#3362B5" points="19.6341646 142.552934 23.5831297 142.552934 23.5831297 110.42169 19.6341646 110.42169"></polygon>
                <polygon id="Fill-6" fill="#3362B5" points="27.0362247 142.552934 30.9851899 142.552934 30.9851899 110.42169 27.0362247 110.42169"></polygon>
                <polygon id="Fill-7" fill="#3362B5" points="34.4379019 142.552934 38.3868671 142.552934 38.3868671 110.42169 34.4379019 110.42169"></polygon>
                <polygon id="Fill-8" fill="#3362B5" points="41.8395791 142.552934 45.7885443 142.552934 45.7885443 110.42169 41.8395791 110.42169"></polygon>
                <polygon id="Fill-9" fill="#3362B5" points="49.2412563 142.552934 53.1902215 142.552934 53.1902215 110.42169 49.2412563 110.42169"></polygon>
                <polygon id="Fill-10" fill="#3362B5" points="56.6429335 142.552934 60.5918987 142.552934 60.5918987 110.42169 56.6429335 110.42169"></polygon>
                <polygon id="Fill-11" fill="#3362B5" points="64.0446108 142.552934 67.9935759 142.552934 67.9935759 110.42169 64.0446108 110.42169"></polygon>
                <polygon id="Fill-12" fill="#3362B5" points="71.446288 142.552934 75.3952532 142.552934 75.3952532 110.42169 71.446288 110.42169"></polygon>
                <polygon id="Fill-13" fill="#3362B5" points="86.2496424 142.552934 90.1986076 142.552934 90.1986076 110.42169 86.2496424 110.42169"></polygon>
                <polygon id="Fill-14" fill="#3362B5" points="101.05338 142.552934 105.002345 142.552934 105.002345 110.42169 101.05338 110.42169"></polygon>
                <polygon id="Fill-15" fill="#3362B5" points="93.6517025 142.552934 97.6006677 142.552934 97.6006677 110.42169 93.6517025 110.42169"></polygon>
                <polygon id="Fill-16" fill="#3362B5" points="78.8479652 142.552934 82.7969304 142.552934 82.7969304 110.42169 78.8479652 110.42169"></polygon>
                <polygon id="Fill-17" fill="#3362B5" points="0 189.551861 110.047203 189.551861 110.047203 147.434671 0 147.434671"></polygon>
                <g id="Group-46" style="mix-blend-mode: multiply;" transform="translate(4.594937, 152.503269)" fill="#3362B5">
                    <polygon id="Fill-18" points="0.235873418 32.1534525 4.18483861 32.1534525 4.18483861 0.0222088608 0.235873418 0.0222088608"></polygon>
                    <polygon id="Fill-20" points="7.63755063 32.1534525 11.5865158 32.1534525 11.5865158 0.0222088608 7.63755063 0.0222088608"></polygon>
                    <polygon id="Fill-22" points="15.0392278 32.1534525 18.988193 32.1534525 18.988193 0.0222088608 15.0392278 0.0222088608"></polygon>
                    <polygon id="Fill-24" points="22.441288 32.1534525 26.3902532 32.1534525 26.3902532 0.0222088608 22.441288 0.0222088608"></polygon>
                    <polygon id="Fill-26" points="29.8429652 32.1534525 33.7919304 32.1534525 33.7919304 0.0222088608 29.8429652 0.0222088608"></polygon>
                    <polygon id="Fill-28" points="37.2446424 32.1534525 41.1936076 32.1534525 41.1936076 0.0222088608 37.2446424 0.0222088608"></polygon>
                    <polygon id="Fill-30" points="44.6463196 32.1534525 48.5952848 32.1534525 48.5952848 0.0222088608 44.6463196 0.0222088608"></polygon>
                    <polygon id="Fill-32" points="52.0479968 32.1534525 55.996962 32.1534525 55.996962 0.0222088608 52.0479968 0.0222088608"></polygon>
                    <polygon id="Fill-34" points="59.4496741 32.1534525 63.3986392 32.1534525 63.3986392 0.0222088608 59.4496741 0.0222088608"></polygon>
                    <polygon id="Fill-36" points="66.8513513 32.1534525 70.8003165 32.1534525 70.8003165 0.0222088608 66.8513513 0.0222088608"></polygon>
                    <polygon id="Fill-38" points="81.6547057 32.1534525 85.6036709 32.1534525 85.6036709 0.0222088608 81.6547057 0.0222088608"></polygon>
                    <polygon id="Fill-40" points="96.458443 32.1534525 100.407408 32.1534525 100.407408 0.0222088608 96.458443 0.0222088608"></polygon>
                    <polygon id="Fill-42" points="89.0567658 32.1534525 93.005731 32.1534525 93.005731 0.0222088608 89.0567658 0.0222088608"></polygon>
                    <polygon id="Fill-44" points="74.2530285 32.1534525 78.2019937 32.1534525 78.2019937 0.0222088608 74.2530285 0.0222088608"></polygon>
                </g>
                <polygon id="Fill-47" fill="#4285F4" points="110.077453 189.595513 220.124655 189.595513 220.124655 147.478706 110.077453 147.478706"></polygon>
                <polygon id="Fill-48" fill="#3362B5" points="114.908263 184.700373 118.857228 184.700373 118.857228 152.56913 114.908263 152.56913"></polygon>
                <polygon id="Fill-49" fill="#3362B5" points="122.30994 184.700373 126.258905 184.700373 126.258905 152.56913 122.30994 152.56913"></polygon>
                <polygon id="Fill-50" fill="#3362B5" points="129.711617 184.700373 133.660582 184.700373 133.660582 152.56913 129.711617 152.56913"></polygon>
                <polygon id="Fill-51" fill="#3362B5" points="137.113677 184.700373 141.062642 184.700373 141.062642 152.56913 137.113677 152.56913"></polygon>
                <polygon id="Fill-52" fill="#3362B5" points="144.515354 184.700373 148.46432 184.700373 148.46432 152.56913 144.515354 152.56913"></polygon>
                <polygon id="Fill-53" fill="#3362B5" points="151.917032 184.700373 155.865997 184.700373 155.865997 152.56913 151.917032 152.56913"></polygon>
                <polygon id="Fill-54" fill="#3362B5" points="159.318709 184.700373 163.267674 184.700373 163.267674 152.56913 159.318709 152.56913"></polygon>
                <polygon id="Fill-55" fill="#3362B5" points="166.720386 184.700373 170.669351 184.700373 170.669351 152.56913 166.720386 152.56913"></polygon>
                <polygon id="Fill-56" fill="#3362B5" points="174.122063 184.700373 178.071028 184.700373 178.071028 152.56913 174.122063 152.56913"></polygon>
                <polygon id="Fill-57" fill="#3362B5" points="181.523741 184.700373 185.472706 184.700373 185.472706 152.56913 181.523741 152.56913"></polygon>
                <polygon id="Fill-58" fill="#3362B5" points="196.327478 184.700373 200.276443 184.700373 200.276443 152.56913 196.327478 152.56913"></polygon>
                <polygon id="Fill-59" fill="#3362B5" points="211.130832 184.700373 215.079797 184.700373 215.079797 152.56913 211.130832 152.56913"></polygon>
                <polygon id="Fill-60" fill="#3362B5" points="203.729155 184.700373 207.67812 184.700373 207.67812 152.56913 203.729155 152.56913"></polygon>
                <polygon id="Fill-61" fill="#3362B5" points="188.925418 184.700373 192.874383 184.700373 192.874383 152.56913 188.925418 152.56913"></polygon>
                <polygon id="Fill-62" fill="#3362B5" points="110.077453 147.518528 220.124655 147.518528 220.124655 105.401722 110.077453 105.401722"></polygon>
                <g id="Group-91" style="mix-blend-mode: multiply;" transform="translate(114.873418, 110.383016)" fill="#3362B5">
                    <polygon id="Fill-63" points="0.0348449367 32.2399905 3.98381013 32.2399905 3.98381013 0.108746835 0.0348449367 0.108746835"></polygon>
                    <polygon id="Fill-65" points="7.43652215 32.2399905 11.3854873 32.2399905 11.3854873 0.108746835 7.43652215 0.108746835"></polygon>
                    <polygon id="Fill-67" points="14.8381994 32.2399905 18.7871646 32.2399905 18.7871646 0.108746835 14.8381994 0.108746835"></polygon>
                    <polygon id="Fill-69" points="22.2402595 32.2399905 26.1892247 32.2399905 26.1892247 0.108746835 22.2402595 0.108746835"></polygon>
                    <polygon id="Fill-71" points="29.6419367 32.2399905 33.5909019 32.2399905 33.5909019 0.108746835 29.6419367 0.108746835"></polygon>
                    <polygon id="Fill-73" points="37.0436139 32.2399905 40.9925791 32.2399905 40.9925791 0.108746835 37.0436139 0.108746835"></polygon>
                    <polygon id="Fill-75" points="44.4452911 32.2399905 48.3942563 32.2399905 48.3942563 0.108746835 44.4452911 0.108746835"></polygon>
                    <polygon id="Fill-77" points="51.8469684 32.2399905 55.7959335 32.2399905 55.7959335 0.108746835 51.8469684 0.108746835"></polygon>
                    <polygon id="Fill-79" points="59.2486456 32.2399905 63.1976108 32.2399905 63.1976108 0.108746835 59.2486456 0.108746835"></polygon>
                    <polygon id="Fill-81" points="66.6503228 32.2399905 70.599288 32.2399905 70.599288 0.108746835 66.6503228 0.108746835"></polygon>
                    <polygon id="Fill-83" points="81.4540601 32.2399905 85.4030253 32.2399905 85.4030253 0.108746835 81.4540601 0.108746835"></polygon>
                    <polygon id="Fill-85" points="96.2574146 32.2399905 100.20638 32.2399905 100.20638 0.108746835 96.2574146 0.108746835"></polygon>
                    <polygon id="Fill-87" points="88.8557373 32.2399905 92.8047025 32.2399905 92.8047025 0.108746835 88.8557373 0.108746835"></polygon>
                    <polygon id="Fill-89" points="74.052 32.2399905 78.0009652 32.2399905 78.0009652 0.108746835 74.052 0.108746835"></polygon>
                </g>
                <polygon id="Fill-92" fill="#D1D3D4" points="106.929232 63.1011171 62.607238 35.336212 15.2031905 62.3517595 14.0655608 60.3556424 62.6627601 32.6604272 108.149187 61.1543956"></polygon>
                <polygon id="Fill-93" fill="#3362B5" points="12.502057 98.0126804 110.387994 98.0126804 110.387994 60.5501614 12.502057 60.5501614"></polygon>
                <polygon id="Fill-94" fill="#D1D3D4" points="61.4863797 33.9983196 63.7834652 33.9983196 63.7834652 0 61.4863797 0"></polygon>
                <path d="M174.404805,127.146072 C174.404805,132.074525 170.409508,136.069822 165.481055,136.069822 C160.552603,136.069822 156.557305,132.074525 156.557305,127.146072 C156.557305,122.21762 160.552603,118.222322 165.481055,118.222322 C170.409508,118.222322 174.404805,122.21762 174.404805,127.146072" id="Fill-104" fill="#BCBEC0"></path>
                <path d="M170.070401,127.146072 C170.070401,129.680563 168.015699,131.735266 165.481208,131.735266 C162.946335,131.735266 160.891632,129.680563 160.891632,127.146072 C160.891632,124.611582 162.946335,122.556879 165.481208,122.556879 C168.015699,122.556879 170.070401,124.611582 170.070401,127.146072" id="Fill-106" fill="#939598"></path>
                <path d="M201.387039,41.2349237 C201.387039,41.2349237 183.232444,42.4453066 183.232444,61.4066959 C183.232444,80.368468 212.683308,102.961006 212.683308,102.961006" id="Stroke-108" stroke="#D1D3D4" stroke-width="3"></path>
                <path d="M223.545432,41.2349237 C223.545432,41.2349237 241.700027,42.4453066 241.700027,61.4066959 C241.700027,80.368468 212.249163,102.961006 212.249163,102.961006 C212.249163,102.961006 226.2216,180.433171 197.499799,178.770569 C161.834666,176.705911 195.744916,121.057016 165.498363,127.089019" id="Stroke-110" stroke="#D1D3D4" stroke-width="3" stroke-linecap="round" stroke-linejoin="round"></path>
                <path d="M203.684967,43.2327256 L197.975375,45.2162066 C197.19998,45.4857763 196.344939,45.0714661 196.075369,44.2960706 L195.020831,41.2599661 C194.751261,40.4845706 195.165572,39.6295294 195.940967,39.3599598 L201.650559,37.3764788 C202.425954,37.1072921 203.280996,37.5212193 203.550565,38.2966149 L204.605103,41.3327193 C204.874673,42.1084978 204.460363,42.963156 203.684967,43.2327256" id="Fill-112" fill="#4285F4"></path>
                <path d="M221.586534,43.2327256 L227.296126,45.2162066 C228.071522,45.4857763 228.926563,45.0714661 229.196132,44.2960706 L230.25067,41.2599661 C230.52024,40.4845706 230.10593,39.6295294 229.330534,39.3599598 L223.620942,37.3764788 C222.845547,37.1072921 221.990506,37.5212193 221.720936,38.2966149 L220.666398,41.3327193 C220.396828,42.1084978 220.811139,42.963156 221.586534,43.2327256" id="Fill-114" fill="#4285F4"></path>
                <g id="Group-8" transform="translate(0.000000, 113.610687)">
                    <polygon id="Fill-95" fill="#BCBEC0" points="26.4987744 72.2541159 20.8804432 67.5038265 34.7615282 51.0864094 40.3798594 55.8366988"></polygon>
                    <polygon id="Fill-96" fill="#9E9E9E" points="38.5684442 57.9305239 28.8412549 58.0855483 33.5379731 52.4790691"></polygon>
                    <g id="Group-99" transform="translate(0.416178, 58.998675)" fill="#BCBEC0">
                        <path d="M8.3357148,36.280074 L0.766067119,29.8799836 C0.366417028,29.541964 0.316164467,28.9436741 0.654184057,28.544024 L24.3046515,0.571836227 C24.6431452,0.171712055 25.2414351,0.121459494 25.6410852,0.459953165 L33.2107329,6.8595695 C33.610383,7.19806317 33.6606355,7.7963531 33.3226159,8.19600319 L9.67214849,36.168191 C9.33365482,36.5683151 8.73536489,36.6180936 8.3357148,36.280074" id="Fill-97"></path>
                    </g>
                    <path d="M87.0743028,25.8913868 L81.8413992,26.9187199 L87.0743028,25.8909127 C86.7334387,24.154829 86.2403947,22.4310713 85.6093932,20.7670478 C82.6321659,12.9191147 76.7767943,6.70012311 69.1222862,3.2559263 C61.467778,-0.188270503 52.9300574,-0.445222281 45.0816503,2.53200496 C38.1036554,5.17927199 32.2833658,10.2348693 28.6936261,16.7672283 C25.1456057,23.2232602 23.9694113,30.7412331 25.3816979,37.936357 C25.722562,39.6714926 26.2151319,41.3952503 26.8466075,43.0597479 C29.8238347,50.907681 35.6792063,57.1266725 43.3337145,60.5703953 C50.9882226,64.0145921 59.5264173,64.2720179 67.3743504,61.2947907 C74.3518712,58.6475237 80.1721608,53.5919263 83.7623745,47.0595674 C87.310395,40.6040095 88.4865894,33.0860366 87.0743028,25.8913868 M81.8413992,26.9172976 C84.246885,39.1694411 77.549546,51.7306852 65.4827681,56.3088832 C52.0093926,61.419948 36.9440538,54.6410671 31.8325149,41.1681656 C31.2991741,39.761568 30.8952573,38.3369552 30.6150755,36.909024 C28.2100638,24.6573546 34.9064547,12.0956364 46.9732325,7.51791244 C60.4466081,2.40684764 75.5119468,9.18572859 80.6234857,22.65863 C81.1568266,24.0647536 81.5607434,25.4893663 81.8413992,26.9172976" id="Fill-100" fill="#BCBEC0"></path>
                    <path d="M81.8413518,26.917345 C84.2468376,39.1694885 77.5494986,51.7307326 65.4827207,56.3084565 C52.0093452,61.4199954 36.9440064,54.6411145 31.8329416,41.1677389 C31.2991267,39.7616154 30.8952098,38.3370026 30.6150281,36.9090714 C28.2100164,24.6569279 34.9064073,12.0956838 46.9731851,7.51795985 C60.4465607,2.40689505 75.5118994,9.18530192 80.6234383,22.6586774 C81.1567792,24.064801 81.560696,25.4894137 81.8413518,26.917345" id="Fill-102" fill="#FFFFFF" opacity="0.649999976"></path>
                    <path d="M32.9263141,40.7182155 L57.6685896,29.6460591" id="Stroke-116" stroke="#FFFFFF" stroke-width="2" stroke-linecap="round" stroke-linejoin="round"></path>
                    <path d="M55.1159491,35.713013 L79.9648927,24.6716718" id="Stroke-118" stroke="#FFFFFF" stroke-width="2" stroke-linecap="round" stroke-linejoin="round"></path>
                </g>
            </g>
        </g>
    </g>
</svg>