<?xml version="1.0" encoding="UTF-8"?>
<svg width="258px" height="131px" viewBox="0 0 258 131" version="1.1" xmlns="http://www.w3.org/2000/svg" xmlns:xlink="http://www.w3.org/1999/xlink">
    <!-- Generator: Sketch 42 (36781) - http://www.bohemiancoding.com/sketch -->
    <title>serverless</title>
    <desc>Created with Sketch.</desc>
    <defs></defs>
    <g id="Page-1" stroke="none" stroke-width="1" fill="none" fill-rule="evenodd">
        <g id="Product_appengine" transform="translate(-939.000000, -1557.000000)">
            <g id="main-content" transform="translate(234.000000, 973.000000)">
                <g id="row3" transform="translate(39.000000, 543.000000)">
                    <g id="serverless" transform="translate(666.000000, 0.000000)">
                        <g id="graphic" transform="translate(0.021277, 0.676471)">
                            <g id="store-source-debug">
                                <g id="laptop" transform="translate(0.000000, 41.000000)">
                                    <g id="base" transform="translate(0.000000, 100.111645)">
                                        <path d="M30.067982,9.81775088 L161.940502,9.81775088 C163.235099,9.85047742 164.658773,9.84689069 166.223944,9.80088985 C187.101905,9.18728042 190.940063,6.02434862 190.940063,6.02434862 L190.568921,5.89397119 C191.432312,5.31746188 192,4.33333055 192,3.21615977 C192,1.44353806 190.561926,0 188.787973,0 L3.21202733,0 C1.43506622,0 0,1.43992378 0,3.21615977 C0,4.33251561 0.570366857,5.31835072 1.43579335,5.89529535 L1.06842105,6.02434862 C1.06842105,6.02434862 4.90647785,9.18719711 25.7837146,9.8008656 C25.8923494,9.81202977 26.0025888,9.81775088 26.1141581,9.81775088 L26.4344228,9.81775088 C27.7462994,9.84718271 28.9548542,9.84589 30.067982,9.81775088 Z" fill="#90A4AE"></path>
                                        <path d="M83.4081543,3.63429024 L109.435625,3.63429024 C109.691138,3.6464048 109.972126,3.64507708 110.281042,3.6280487 C114.401692,3.40090556 115.159223,2.23006589 115.159223,2.23006589 L114.951823,2.09341887 C115.206909,1.87508427 115.368421,1.55158146 115.368421,1.19054335 C115.368421,0.528440315 114.832639,0 114.171719,0 L78.6703861,0 C78.0093761,0 77.4736842,0.533024416 77.4736842,1.19054335 C77.4736842,1.5539552 77.6350959,1.87709929 77.8900167,2.09469672 L77.6845568,2.23006589 C77.6845568,2.23006589 78.442088,3.40090556 82.5627381,3.6280487 C82.8716534,3.64507708 83.1526418,3.6464048 83.4081543,3.63429024 Z" id="groove" fill="#F3F6F7"></path>
                                    </g>
                                    <g id="screen" transform="translate(22.905263, 0.000000)">
                                        <path d="M0,4.00149608 C0,1.79153082 1.7873584,0 4.00564892,0 L141.510141,0 C143.722399,0 145.515789,1.79388018 145.515789,4.00149608 L145.515789,98.8932987 C145.515789,99.9937566 144.62427,100.885854 143.51411,100.885854 L2.00167962,100.885854 C0.896182492,100.885854 0,99.9828736 0,98.8932987 L0,4.00149608 Z" id="Rectangle-488" fill="#90A4AE"></path>
                                        <g id="Group-7" transform="translate(8.589474, 9.140665)" fill="#526570">
                                            <rect id="Rectangle-489" x="0" y="0" width="128.336842" height="80.7425375"></rect>
                                        </g>
                                        <g id="left-col" transform="translate(8.589474, 15.572984)" fill="#526570">
                                            <rect id="Rectangle-495" x="0" y="0" width="128.441379" height="74.3102179"></rect>
                                        </g>
                                    </g>
                                    <g id="code" transform="translate(41.660377, 21.684655)">
                                        <rect id="Rectangle-2199" fill="#66BBFF" x="0" y="47.8673949" width="18.0441651" height="5.98342436"></rect>
                                        <rect id="Rectangle-2199" fill="#78909C" x="-1.0658141e-14" y="35.9005462" width="40.0981447" height="5.98342436"></rect>
                                        <rect id="Rectangle-2199" fill="#66BBFF" x="29.0711549" y="23.9336974" width="24.0588868" height="5.98342436"></rect>
                                        <rect id="Rectangle-2199" fill="#78909C" x="0" y="23.9336974" width="23.0564332" height="5.98342436"></rect>
                                        <rect id="Rectangle-2199" fill="#78909C" x="49.1202273" y="11.9668487" width="31.0760622" height="5.98342436"></rect>
                                        <rect id="Rectangle-2199" fill="#78909C" x="-3.55271368e-15" y="11.9668487" width="43.1055056" height="5.98342436"></rect>
                                        <rect id="Rectangle-2199" fill="#66BBFF" x="0" y="0" width="19.0466188" height="5.98342436"></rect>
                                    </g>
                                </g>
                            </g>
                            <g id="cloud" transform="translate(101.000000, 74.000000)">
                                <path d="M78.2821462,2.88382804 C59.3639608,2.88382804 43.0551804,12.238472 35.2269658,26.2704379 C15.004078,28.6090989 2.55795385e-13,43.2257301 2.55795385e-13,61.3503528 C2.55795385e-13,80.644306 17.6134829,96.4302677 39.1410731,96.4302677 L123.946731,96.4302677 C142.212566,96.4302677 156.564292,83.5676322 156.564292,67.1970053 C156.564292,51.9957088 142.864917,39.1330734 126.556136,37.9637429 C122.573464,17.2412339 102.419141,2.88382804 78.2821462,2.88382804 Z" id="cloud2" fill="#FFFFFF" transform="translate(78.282146, 49.657048) scale(-1, 1) translate(-78.282146, -49.657048) "></path>
                                <path d="M4.13957752,53.3403661 C4.13957752,53.3403661 11.3115443,40.3195561 28.1349879,38.1569332 C28.7824109,38.0737082 30.1202789,37.956861 30.1202789,37.956861 C30.1202789,37.956861 31.2656359,26.8357762 43.4447583,15.7243895 C44.2091974,15.0269683 45.8709271,13.6349929 45.8709271,13.6349929 C45.8709271,13.6349929 57.9051823,3.03927462 77.4154757,2.88222009 C78.0893303,2.87679567 79.4636061,2.90417039 79.4636061,2.90417039 C79.4636061,2.90417039 94.175495,2.25344852 107.651848,11.505933 C108.053859,11.7819426 108.85416,12.3606801 108.85416,12.3606801 C108.85416,12.3606801 115.459934,16.4386918 120.518305,24.880958 C120.765062,25.2927879 121.246582,26.1476373 121.246582,26.1476373 C121.246582,26.1476373 134.69876,27.36433 144.751494,36.2453921 C145.333421,36.7594939 146.459831,37.865997 146.459831,37.865997 C146.459831,37.865997 143.473017,28.3827643 124.788331,24.5725135 C124.185977,24.4496792 122.9319,24.222206 122.9319,24.222206 C122.9319,24.222206 115.197212,11.1340761 99.7382161,4.81292395 C99.055037,4.53357341 97.886177,3.98436995 97.886177,3.98436995 C97.886177,3.98436995 91.4040402,1.49870796 82.1438447,0.670153968 C72.8836492,-0.158400029 64.5494733,2.24761039 64.5494733,2.24761039 C64.5494733,2.24761039 53.243504,4.43469922 44.1770432,11.505933 C44.0373929,11.6148509 42.3250041,13.0984639 42.3250041,13.0984639 C42.3250041,13.0984639 32.390122,21.7653914 28.4683533,34.4028004 C28.3530768,34.7742645 28.1349887,35.5323438 28.1349887,35.5323438 C28.1349887,35.5323438 12.2153461,36.8991514 5.63623063,49.252917 C5.40010276,49.6963001 4.96511025,50.6259689 4.96511025,50.6259689 L4.13957752,53.3403661 Z" id="Path-797" fill="#DFDFDF"></path>
                            </g>
                        </g>
                    </g>
                </g>
            </g>
        </g>
    </g>
</svg>